<svg xmlns="http://www.w3.org/2000/svg" viewBox="0 0 750 500"><g id="freepik--background-simple--inject-72"><g><path d="M296.196,40.177c-28.753,2.847-56.479,8.907-81.069,18.413-28.982,11.204-58.595,28.659-49.849,51.49,16.148,42.149,93.61,42.917,78.144,71.257-17.519,32.101-5.77,69.757,72.841,80.228,149.311,19.889,329.807-96.484,279.112-160.43-31.56-39.81-146.509-76.073-299.179-60.958Z" style="fill:#92E3A9;"></path><path d="M296.196,40.177c-28.753,2.847-56.479,8.907-81.069,18.413-28.982,11.204-58.595,28.659-49.849,51.49,16.148,42.149,93.61,42.917,78.144,71.257-17.519,32.101-5.77,69.757,72.841,80.228,149.311,19.889,329.807-96.484,279.112-160.43-31.56-39.81-146.509-76.073-299.179-60.958Z" style="fill:#fff; opacity:.9;"></path></g></g><g id="freepik--Shadow--inject-72"><ellipse cx="387.33" cy="448.317" rx="333.147" ry="8.98" style="fill:#f5f5f5;"></ellipse></g><g id="freepik--Umbrella--inject-72"><g><g><g><path d="M290.276,440.411l1.468,.328c.865,.193,1.724-.351,1.917-1.217L376.092,52.641c.193-.865-.351-1.724-1.217-1.917l-1.468-.328c-.865-.193-1.724,.351-1.917,1.217l-82.431,386.881c-.193,.865,.351,1.724,1.217,1.917Z" style="fill:#263238;"></path><path d="M290.276,440.411l1.468,.328c.865,.193,1.724-.351,1.917-1.217L376.092,52.641c.193-.865-.351-1.724-1.217-1.917l-1.468-.328c-.865-.193-1.724,.351-1.917,1.217l-82.431,386.881c-.193,.865,.351,1.724,1.217,1.917Z" style="fill:#fff; opacity:.3;"></path></g><path d="M212.825,105.705l1.671-5.545s57.259-54.998,150.999-33.88c93.74,21.118,122.308,94.69,122.308,94.69l-.417,6.249c-.218,3.269-3.218,5.626-6.445,5.056-15.579-2.752-56.093-10.114-58.52-12.663-3.009-3.16-4.671-13.361-4.671-13.361,0,0-1.582,9.542-5.327,10.085-6.978,1.011-129.287-26.195-129.8-28.639-.514-2.444-.449-10.663-.449-10.663,0,0-.816,9.895-6.182,9.299-4.325-.48-43.852-9.818-59.023-13.422-3.2-.76-5.092-4.056-4.143-7.205Z" style="fill:#263238;"></path><g style="opacity:.3;"><path d="M357.041,65.598c-31.102,3.049-60.116,22.547-74.689,50.192,0,0,8.352-25.821,30.096-38.655,21.744-12.834,44.592-11.537,44.592-11.537Z"></path></g><g style="opacity:.3;"><path d="M386.895,71.801c23.069,21.082,35.912,44.598,31.008,75.462,0,0,9.343-25.19-3.593-46.874-12.186-20.429-27.415-28.588-27.415-28.588Z"></path></g><path d="M216.969,112.91c15.172,3.604,54.698,12.942,59.023,13.422,5.366,.596,6.182-9.299,6.182-9.299,0,0-.065,8.22,.449,10.663,.514,2.444,122.822,29.65,129.8,28.639,3.745-.543,5.327-10.084,5.327-10.084,0,0,1.662,10.201,4.671,13.361,2.427,2.549,42.941,9.911,58.52,12.663,3.226,.57,6.226-1.787,6.445-5.056l.392-5.869L214.496,100.16l-1.671,5.544c-.949,3.149,.943,6.445,4.143,7.205Z" style="opacity:.3;"></path></g><g><g><polygon points="360.334 154.523 354.224 161.173 354.224 180.054 366.443 180.054 366.443 161.173 360.334 154.523" style="fill:#92E3A9;"></polygon><polygon points="360.334 154.523 354.224 161.173 354.224 180.054 366.443 180.054 366.443 161.173 360.334 154.523" style="opacity:.3;"></polygon></g><path d="M360.34,158.743h-.008c-.138-.005-.246-.121-.242-.258,.174-5.162,.171-10.393-.006-15.549-.004-.138,.104-.254,.241-.259,.14-.01,.254,.104,.259,.241,.178,5.168,.18,10.411,.006,15.583-.005,.135-.116,.242-.25,.242Z" style="fill:#263238;"></path></g></g></g><g id="freepik--Bike--inject-72"><g><g><g><rect x="631.363" y="275.277" width="8.864" height="5.858" style="fill:#92E3A9;"></rect><g id="freepik--freepik--Character--inject-280--inject-72"><g><polygon points="628.602 435.762 627.719 435.291 655.831 382.62 594.002 382.62 594.002 381.62 657.499 381.62 628.602 435.762" style="fill:#e0e0e0;"></polygon><polygon points="713.835 392.71 655.878 382.187 686.068 331.335 686.928 331.845 657.472 381.46 714.013 391.726 713.835 392.71" style="fill:#e0e0e0;"></polygon><path d="M676.86,435.706l-20.628-53.641c-9.405-12.815-33.915-46.104-35.033-47.137l.59-.806c.909,.606,27.24,36.438,35.289,47.404l.063,.116,20.652,53.703-.934,.359Z" style="fill:#e0e0e0;"></path></g><g><polygon points="433.159 435.762 432.276 435.291 460.388 382.62 398.56 382.62 398.56 381.62 462.056 381.62 433.159 435.762" style="fill:#e0e0e0;"></polygon><polygon points="518.393 392.71 460.436 382.187 490.626 331.335 491.485 331.845 462.029 381.46 518.57 391.726 518.393 392.71" style="fill:#e0e0e0;"></polygon><path d="M481.418,435.706l-20.628-53.641c-9.405-12.815-33.916-46.104-35.034-47.137l.59-.806c.909,.606,27.241,36.438,35.29,47.404l.063,.116,20.652,53.703-.934,.359Z" style="fill:#e0e0e0;"></path></g><path d="M460.007,324.871c31.618,0,57.249,25.631,57.249,57.249s-25.631,57.249-57.249,57.249-57.249-25.631-57.249-57.249c.034-31.604,25.645-57.215,57.249-57.249m0-8.218c-36.156-.006-65.471,29.3-65.477,65.457-.006,36.156,29.3,65.471,65.457,65.477,36.156,.006,65.472-29.3,65.477-65.457v-.01c0-36.156-29.31-65.467-65.467-65.467h.01Z" style="fill:#263238;"></path><path d="M460.007,327.316c30.267-.006,54.809,24.526,54.814,54.794,.006,30.267-24.526,54.808-54.794,54.814-30.267,.006-54.809-24.526-54.814-54.794v-.01c.028-30.252,24.542-54.77,54.794-54.804m0-7.858c-34.608,0-62.662,28.055-62.662,62.663s28.055,62.663,62.662,62.663,62.662-28.055,62.662-62.663-28.055-62.663-62.662-62.663Z" style="fill:#263238;"></path><path d="M656.665,324.871c31.618-.006,57.253,25.621,57.259,57.239,.006,31.618-25.621,57.253-57.239,57.259-31.618,.006-57.253-25.621-57.259-57.239v-.01c.034-31.604,25.645-57.215,57.249-57.249m0-8.218c-36.156,0-65.467,29.311-65.467,65.467s29.311,65.467,65.467,65.467,65.467-29.311,65.467-65.467-29.311-65.467-65.467-65.467h0Z" style="fill:#263238;"></path><path d="M656.665,327.316c30.267-.006,54.809,24.526,54.814,54.794,.006,30.267-24.526,54.808-54.794,54.814-30.267,.006-54.809-24.526-54.814-54.794v-.01c.028-30.252,24.542-54.77,54.794-54.804m0-7.858c-34.607,0-62.662,28.055-62.662,62.663s28.055,62.663,62.662,62.663,62.663-28.055,62.663-62.663-28.055-62.663-62.663-62.663Z" style="fill:#263238;"></path><path d="M459.997,375.093h0c.643,.002,1.282,.092,1.9,.267h.226l88.519,17.648c6.502,1.688,10.404,8.327,8.716,14.829-1.395,5.371-6.248,9.117-11.797,9.106-.99-.002-1.977-.122-2.938-.36l-86.402-27.736h-.113c-3.733-1.059-5.901-4.945-4.841-8.678,.854-3.009,3.594-5.091,6.721-5.108m0-3.082c-5.582-.076-10.169,4.387-10.245,9.969-.064,4.65,3.054,8.744,7.554,9.919l86.495,27.736c1.236,.313,2.506,.472,3.78,.472,8.419-.009,15.237-6.842,15.228-15.261-.008-6.962-4.732-13.035-11.478-14.755l-88.601-17.71c-.885-.252-1.802-.38-2.722-.38l-.01,.01Z" style="fill:#263238;"></path><path d="M459.997,375.093h0c.643,.002,1.282,.092,1.9,.267h.226l88.519,17.648c6.502,1.688,10.404,8.327,8.716,14.829-1.395,5.371-6.248,9.117-11.797,9.106-.99-.002-1.977-.122-2.938-.36l-86.402-27.736h-.113c-3.733-1.059-5.901-4.945-4.841-8.678,.854-3.009,3.594-5.091,6.721-5.108m0-3.082c-5.582-.076-10.169,4.387-10.245,9.969-.064,4.65,3.054,8.744,7.554,9.919l86.495,27.736c1.236,.313,2.506,.472,3.78,.472,8.419-.009,15.237-6.842,15.228-15.261-.008-6.962-4.732-13.035-11.478-14.755l-88.601-17.71c-.885-.252-1.802-.38-2.722-.38l-.01,.01Z" style="fill:#fff; opacity:.7;"></path><path d="M547.56,407.914c-.147,.01-.295,.01-.442,0-1.07-.152-1.982-.854-2.404-1.849l-54.845-129.958c-.661-1.569,.075-3.376,1.644-4.037,1.569-.661,3.376,.075,4.037,1.643l52.852,125.202,84.235-103.075c1.116-1.285,3.063-1.422,4.348-.306,1.232,1.071,1.416,2.917,.419,4.209l-87.429,107.04c-.592,.723-1.48,1.139-2.414,1.13Z" style="fill:#92E3A9;"></path><path d="M460.007,384.174c-1.135,.003-2.056-.915-2.059-2.05,0-.307,.068-.611,.2-.888l41.224-87.029c.431-1.049,1.632-1.55,2.681-1.119,1.049,.432,1.55,1.632,1.119,2.681-.027,.066-.058,.131-.092,.194l-41.213,87.029c-.338,.721-1.063,1.181-1.859,1.181Z" style="fill:#92E3A9;"></path><path d="M656.665,385.201c-1.41,.001-2.641-.955-2.989-2.322l-24.736-96.254-127.441,11.526c-1.702,.153-3.206-1.103-3.359-2.804-.153-1.702,1.102-3.206,2.804-3.359l130.05-11.762c1.506-.139,2.89,.836,3.267,2.301l25.394,98.791c.422,1.648-.571,3.326-2.219,3.749-.249,.08-.509,.125-.77,.133Z" style="fill:#92E3A9;"></path><path d="M631.271,286.4c-1.543,.016-2.861-1.113-3.082-2.64l-3.667-25.435c-.247-1.685,.919-3.251,2.604-3.498,1.685-.247,3.251,.919,3.498,2.604l3.729,25.445c.244,1.684-.923,3.248-2.607,3.492h-.002c-.156,.022-.314,.033-.472,.031Z" style="fill:#92E3A9;"></path><path d="M605.307,264.587c-1.955-.456-3.17-2.41-2.714-4.365,.29-1.243,1.211-2.243,2.426-2.634l25.721-8.13c1.915-.617,3.968,.435,4.585,2.35,.617,1.915-.435,3.968-2.349,4.585l-25.709,8.133c-.636,.196-1.313,.217-1.961,.062Z" style="fill:#263238;"></path><path d="M471.359,274.423c4.6,4.804,28.106-.801,34.998-3.082,6.893-2.281,10.695-.254,8.343-5.617-1.925-4.388-15.67-2.603-24.935-2.504-2.369,.025-4.742-.198-7.022-.838-9.647-2.709-19.931,1.119-11.384,12.041Z" style="fill:#263238;"></path><path d="M538.479,439.636c-1.135,0-2.055-.918-2.056-2.053,0-.185,.025-.368,.073-.546l18.162-65.508c.353-1.078,1.513-1.667,2.591-1.314,1.01,.331,1.602,1.377,1.363,2.413l-18.162,65.467c-.233,.901-1.042,1.533-1.972,1.541Z" style="fill:#263238;"></path><path d="M561.736,374.138h-18.152c-1.135,0-2.054-.92-2.054-2.055s.92-2.055,2.054-2.055h18.152c1.135,0,2.054,.92,2.054,2.055s-.92,2.055-2.054,2.055Z" style="fill:#263238;"></path><path d="M551.525,439.636h-18.141c-1.135,0-2.055-.92-2.055-2.055s.92-2.055,2.055-2.055h18.141c1.135,0,2.055,.92,2.055,2.055s-.92,2.055-2.055,2.055h0Z" style="fill:#263238;"></path></g><path d="M588.517,349.829c-.351,.429,1.026,8.511,1.026,8.511l5.667-6.939-.907-8.654-5.787,7.081Z" style="fill:#fff; opacity:.3;"></path><polygon points="598.553 337.548 599.579 346.059 605.246 339.121 605.246 329.358 598.553 337.548" style="fill:#fff; opacity:.3;"></polygon><g><polygon points="638.012 265.442 639.277 300.044 674.633 301.182 682.444 265.732 638.012 265.442" style="fill:#b97964;"></polygon><polygon points="638.249 271.908 681.142 271.772 679.928 277.15 638.546 274.461 638.249 271.908" style="opacity:.3;"></polygon><rect x="637.377" y="264.689" width="47.922" height="9.368" style="fill:#b97964;"></rect><polygon points="651.51 298.955 651.01 298.939 651.652 277.673 652.152 277.688 651.51 298.955" style="opacity:.1;"></polygon><rect x="658.031" y="267.306" width=".5" height="32.71" transform="translate(361.723 936.234) rotate(-88.873)" style="opacity:.1;"></rect><rect x="658.031" y="276.87" width=".5" height="32.71" transform="translate(352.161 945.609) rotate(-88.873)" style="opacity:.1;"></rect><rect x="654.47" y="288.064" width="21.276" height=".5" transform="translate(356.16 944.092) rotate(-88.21)" style="opacity:.1;"></rect></g><path d="M491.783,312.063h-79.604c-.828,0-1.5-.672-1.5-1.5s.672-1.5,1.5-1.5h79.604c.828,0,1.5,.672,1.5,1.5s-.672,1.5-1.5,1.5Z" style="fill:#92E3A9;"></path><rect x="439.149" y="305.591" width="3" height="80.418" transform="translate(-112.078 255.016) rotate(-28.796)" style="fill:#92E3A9;"></rect></g><circle cx="460.007" cy="382.12" r="10.098" style="fill:#263238;"></circle><circle cx="656.665" cy="382.12" r="10.098" transform="translate(259.522 1029.809) rotate(-88.68)" style="fill:#263238;"></circle><path d="M547.56,389.588c-8.419,0-15.244,6.825-15.244,15.245s6.825,15.244,15.244,15.244,15.244-6.825,15.244-15.244h0c.006-8.414-6.81-15.239-15.224-15.245h-.02Z" style="fill:#263238;"></path><polygon points="530.239 289.339 533.133 293.225 605.14 286.4 606.515 282.44 530.239 289.339" style="fill:#fff; opacity:.3;"></polygon></g><g><g><polygon points="482.167 286.038 488.318 308.678 478.476 308.678 482.167 286.038" style="fill:#92E3A9;"></polygon><polygon points="482.167 286.038 488.318 308.678 478.476 308.678 482.167 286.038" style="opacity:.5;"></polygon><polygon points="419.635 308.678 426.351 286.038 482.167 286.038 478.476 308.678 419.635 308.678" style="fill:#92E3A9;"></polygon><polygon points="419.635 308.678 426.351 286.038 482.167 286.038 478.476 308.678 419.635 308.678" style="opacity:.3;"></polygon></g><text transform="translate(434.5 301.672)" style="fill:#fff; font-family:Montserrat-Bold, Montserrat; font-size:12.012px;"><tspan x="0" y="0">SALE</tspan></text></g><g><g><polygon points="527.58 300.628 521.779 306.942 521.779 324.871 533.381 324.871 533.381 306.942 527.58 300.628" style="fill:#92E3A9;"></polygon><polygon points="527.58 300.628 521.779 306.942 521.779 324.871 533.381 324.871 533.381 306.942 527.58 300.628" style="opacity:.3;"></polygon></g><path d="M527.586,304.646h-.009c-.138-.005-.246-.12-.241-.259,.165-4.897,.163-9.865-.006-14.763-.005-.138,.104-.254,.241-.259,.146,.011,.254,.104,.259,.241,.169,4.909,.171,9.888,.006,14.798-.005,.135-.115,.241-.25,.241Z" style="fill:#263238;"></path></g></g></g><g id="freepik--Piano--inject-72"><g><g><polygon points="267.921 184.816 260.306 207.434 274.381 207.434 267.921 184.816" style="fill:#263238;"></polygon><polygon points="267.921 184.816 260.306 207.434 274.381 207.434 267.921 184.816" style="opacity:.3;"></polygon><polygon points="294.479 207.434 267.921 207.434 260.306 170.495 286.846 170.495 294.479 207.434" style="fill:#263238;"></polygon></g><g><path d="M195.739,206.863h-2.581v3.843h2.581v28.921h-2.241l-10.198,48.43-46.396,6.746v21.45h3.877v122.724h-3.877v7.512h58.835l198.751-.079V206.863H195.739Zm-47.206,232.114v-122.724h47.206v122.724h-47.206Z" style="fill:#92E3A9;"></path><g><path d="M339.5,206.863h-2.581v3.843h2.581v28.921h-2.241l-10.198,48.43-46.396,6.746v21.45h3.877v122.724h-3.877v7.512l58.835,.276h0l54.99-.355V206.863h-54.99Zm-47.206,232.114v-122.724h47.206v122.724h-47.206Z" style="fill:#92E3A9;"></path></g><rect x="284.542" y="316.253" width="7.753" height="122.724" style="isolation:isolate; opacity:.2;"></rect><polygon points="195.739 210.706 339.5 210.706 339.5 215.822 195.739 213.229 195.739 210.706" style="isolation:isolate; opacity:.2;"></polygon><polygon points="195.739 239.627 339.5 239.627 195.739 238.235 195.739 239.627" style="isolation:isolate; opacity:.2;"></polygon><polygon points="141.693 301.873 277.019 301.873 277.019 293.828 297.873 291.17 171.732 291.17 141.693 295.54 141.693 301.873" style="isolation:isolate; opacity:.2;"></polygon><polygon points="183.3 288.057 327.062 288.057 284.542 282.567 291.189 245.964 229.917 245.964 220.438 286.504 183.3 288.057" style="isolation:isolate; opacity:.2;"></polygon><polygon points="147.266 300.722 277.019 300.722 277.019 295.488 172.136 295.488 147.266 299.211 147.266 300.722" style="fill:#fff;"></polygon><rect x="147.266" y="299.211" width="129.753" height="1.511" style="isolation:isolate; opacity:.1;"></rect><polygon points="175.269 294.816 165.644 296.748 165.644 297.3 169.253 297.3 177.893 295.488 177.893 294.816 175.269 294.816" style="fill:#263238;"></polygon><polygon points="184.2 294.816 174.576 296.748 174.576 297.3 178.185 297.3 186.825 295.488 186.825 294.816 184.2 294.816" style="fill:#263238;"></polygon><polygon points="193.132 294.816 183.508 296.748 183.508 297.3 187.117 297.3 195.757 295.488 195.757 294.816 193.132 294.816" style="fill:#263238;"></polygon><polygon points="202.064 294.816 192.44 296.748 192.44 297.3 196.049 297.3 204.689 295.488 204.689 294.816 202.064 294.816" style="fill:#263238;"></polygon><polygon points="210.996 294.816 201.372 296.748 201.372 297.3 204.981 297.3 213.621 295.488 213.621 294.816 210.996 294.816" style="fill:#263238;"></polygon><polygon points="219.928 294.816 210.303 296.748 210.303 297.3 213.913 297.3 222.553 295.488 222.553 294.816 219.928 294.816" style="fill:#263238;"></polygon><polygon points="228.86 294.816 219.235 296.748 219.235 297.3 222.845 297.3 231.485 295.488 231.485 294.816 228.86 294.816" style="fill:#263238;"></polygon><polygon points="237.792 294.816 228.167 296.748 228.167 297.3 231.776 297.3 240.417 295.488 240.417 294.816 237.792 294.816" style="fill:#263238;"></polygon><polygon points="246.724 294.816 237.099 296.748 237.099 297.3 240.708 297.3 249.349 295.488 249.349 294.816 246.724 294.816" style="fill:#263238;"></polygon><polygon points="255.656 294.816 246.031 296.748 246.031 297.3 249.64 297.3 258.281 295.488 258.281 294.816 255.656 294.816" style="fill:#263238;"></polygon><polygon points="264.588 294.816 254.963 296.748 254.963 297.3 258.572 297.3 267.213 295.488 267.213 294.816 264.588 294.816" style="fill:#263238;"></polygon><polygon points="273.52 294.816 263.895 296.748 263.895 297.3 267.504 297.3 276.144 295.488 276.144 294.816 273.52 294.816" style="fill:#263238;"></polygon><path d="M212.802,444.444l-13.566,.186c-1.219,.017-2.246-.906-2.359-2.12l-.091-.982c-.126-1.358,.931-2.535,2.295-2.553l13.431-.184c1.091-.015,2.053,1.142,2.192,2.637h0c.151,1.621-.718,3-1.901,3.017Z" style="opacity:.3;"></path><path d="M233.172,444.266l-13.566,.134c-1.219,.012-2.242-.915-2.351-2.129l-.088-.983c-.121-1.358,.941-2.531,2.305-2.544l13.431-.133c1.091-.011,2.048,1.15,2.182,2.646h0c.145,1.622-.73,2.998-1.913,3.009Z" style="opacity:.3;"></path><g><path d="M289.708,242.758l-8.316,42.952s-24.428,.111-33.209,2.344c0,0-19.153-3.295-29.283-3.295l10.727-42c.431-.144,20.414,.288,27.856,3.207,0,0,20.115-3.495,32.225-3.207Z" style="fill:#f5f5f5;"></path><path d="M257.483,245.965l-9.3,42.089s-19.153-3.295-29.283-3.295l10.727-42c.431-.144,20.414,.288,27.856,3.207Z" style="isolation:isolate; opacity:.1;"></path><g style="isolation:isolate; opacity:.2;"><path d="M253.249,250.824c-.044,0-.088-.011-.13-.033-5.778-3.077-21.238-3.219-21.393-3.22-.152-.001-.275-.125-.274-.279,.001-.152,.125-.274,.276-.274h.002c.64,.004,15.751,.145,21.649,3.285,.134,.071,.186,.24,.114,.374-.05,.094-.145,.147-.244,.147Z"></path></g><g style="isolation:isolate; opacity:.2;"><path d="M261.087,250.824c-.131,0-.247-.093-.272-.227-.028-.15,.072-.294,.223-.322,.709-.13,17.452-3.181,23.538-2.416,.152,.02,.259,.158,.24,.309-.019,.151-.16,.249-.309,.24-6.003-.755-23.197,2.38-23.37,2.412-.017,.003-.033,.004-.05,.004Z"></path></g><g style="isolation:isolate; opacity:.2;"><path d="M252.08,255.892c-.044,0-.089-.011-.13-.032-5.778-3.077-21.238-3.219-21.394-3.22-.152,0-.275-.125-.274-.279,0-.152,.125-.274,.276-.274h.002c.64,.004,15.751,.145,21.65,3.285,.134,.071,.186,.24,.114,.374-.05,.094-.145,.147-.244,.147Z"></path></g><g style="isolation:isolate; opacity:.2;"><path d="M259.918,255.892c-.131,0-.247-.093-.272-.227-.027-.15,.072-.294,.222-.322,.71-.13,17.458-3.179,23.538-2.415,.152,.019,.259,.158,.24,.309-.019,.151-.162,.255-.309,.24-6.001-.76-23.197,2.379-23.37,2.41-.017,.003-.033,.004-.05,.004Z"></path></g><g style="isolation:isolate; opacity:.2;"><path d="M250.911,260.961c-.044,0-.089-.011-.13-.033-5.778-3.077-21.238-3.219-21.393-3.22-.152-.001-.275-.125-.274-.279,.001-.152,.125-.274,.276-.274h.002c.64,.004,15.751,.145,21.649,3.285,.134,.071,.186,.24,.114,.374-.05,.094-.145,.147-.244,.147Z"></path></g><g style="isolation:isolate; opacity:.2;"><path d="M258.749,260.961c-.131,0-.247-.093-.272-.227-.028-.15,.072-.294,.222-.322,.709-.13,17.456-3.179,23.538-2.415,.152,.019,.259,.157,.24,.309-.02,.151-.159,.254-.309,.24-6-.761-23.197,2.379-23.37,2.41-.017,.003-.033,.004-.05,.004Z"></path></g><g style="isolation:isolate; opacity:.2;"><path d="M249.742,266.029c-.044,0-.088-.011-.13-.032-5.778-3.077-21.238-3.219-21.394-3.22-.152,0-.275-.125-.274-.279,.001-.152,.125-.274,.276-.274h.002c.64,.004,15.751,.145,21.649,3.285,.134,.071,.186,.24,.114,.374-.05,.094-.145,.147-.244,.147Z"></path></g><g style="isolation:isolate; opacity:.2;"><path d="M257.58,266.029c-.13,0-.247-.093-.271-.227-.028-.15,.072-.294,.222-.322,.709-.13,17.456-3.178,23.538-2.415,.152,.019,.259,.158,.24,.309-.019,.151-.162,.253-.309,.24-5.999-.752-23.197,2.379-23.37,2.41-.017,.003-.033,.004-.05,.004Z"></path></g><g style="isolation:isolate; opacity:.2;"><path d="M248.574,271.098c-.044,0-.089-.011-.13-.032-5.778-3.078-21.238-3.219-21.394-3.22-.152-.001-.275-.125-.274-.279,0-.152,.125-.274,.276-.274h.001c.641,.004,15.752,.144,21.651,3.285,.134,.073,.186,.24,.114,.374-.05,.094-.145,.147-.244,.147Z"></path></g><g style="isolation:isolate; opacity:.2;"><path d="M256.411,271.098c-.131,0-.247-.093-.272-.227-.028-.15,.072-.294,.222-.322,.71-.13,17.452-3.181,23.538-2.416,.152,.02,.259,.158,.24,.309-.019,.151-.158,.252-.309,.24-6.002-.752-23.196,2.38-23.369,2.411-.017,.003-.033,.004-.05,.004Z"></path></g><g style="isolation:isolate; opacity:.2;"><path d="M247.405,276.166c-.044,0-.089-.011-.13-.032-5.779-3.077-21.239-3.219-21.394-3.22-.152-.001-.275-.125-.274-.279,0-.152,.125-.274,.276-.274h.002c.64,.004,15.751,.145,21.65,3.285,.134,.071,.186,.24,.114,.373-.05,.094-.145,.147-.244,.147Z"></path></g><g style="isolation:isolate; opacity:.2;"><path d="M255.242,276.166c-.131,0-.247-.093-.272-.227-.027-.15,.072-.294,.222-.322,.71-.131,17.454-3.181,23.538-2.416,.152,.019,.259,.158,.24,.309-.019,.151-.161,.251-.309,.24-6.002-.753-23.196,2.38-23.369,2.412-.017,.003-.033,.004-.05,.004Z"></path></g><g style="isolation:isolate; opacity:.2;"><path d="M246.236,281.234c-.044,0-.088-.011-.13-.032-5.779-3.077-21.239-3.219-21.394-3.22-.152-.001-.275-.125-.274-.279,.001-.152,.125-.274,.276-.274h.002c.64,.004,15.751,.145,21.65,3.285,.134,.071,.186,.24,.114,.374-.05,.094-.145,.147-.244,.147Z"></path></g><g style="isolation:isolate; opacity:.2;"><path d="M254.073,281.234c-.13,0-.247-.093-.271-.227-.028-.15,.072-.294,.222-.322,.709-.13,17.456-3.179,23.538-2.415,.152,.02,.259,.158,.24,.309-.019,.151-.164,.255-.309,.24-6.001-.765-23.197,2.378-23.369,2.41-.017,.003-.033,.004-.05,.004Z"></path></g></g></g><g><g><polygon points="318.392 219.185 312.283 225.835 312.283 244.717 324.502 244.717 324.502 225.835 318.392 219.185" style="fill:#92E3A9;"></polygon><polygon points="318.392 219.185 312.283 225.835 312.283 244.717 324.502 244.717 324.502 225.835 318.392 219.185" style="opacity:.3;"></polygon></g><path d="M318.398,223.405h-.008c-.138-.005-.246-.121-.242-.258,.173-5.121-.004-16.168-.006-16.28-.002-.138,.108-.251,.246-.254h.004c.136,0,.248,.109,.25,.246,.002,.111,.179,11.171,.006,16.304-.005,.135-.116,.242-.25,.242Z" style="fill:#263238;"></path></g><g><path d="M242.424,201.624v4.511h.883v.727h-40.899c-1.998,0-3.619-1.336-3.619-2.983s1.62-2.983,3.619-2.983h40.899v.727h-.883Z" style="fill:#92E3A9;"></path><path d="M242.424,201.624v4.511h.883v.727h-40.899c-1.998,0-3.619-1.336-3.619-2.983s1.62-2.983,3.619-2.983h40.899v.727h-.883Z" style="opacity:.3;"></path><path d="M242.424,201.624v4.511h.883v.727h-20.652c-1.998,0-3.619-1.336-3.619-2.983s1.62-2.983,3.619-2.983h20.652v.727h-.883Z" style="fill:#fff; isolation:isolate; opacity:.3;"></path><path d="M242.424,201.624v4.511h-19.77c-1.52,.024-2.777-.973-2.806-2.226v-.03c-.01-1.237,1.199-2.247,2.7-2.255,.012,0,.024,0,.035,0h19.84Z" style="fill:#fff; isolation:isolate; opacity:.7;"></path><path d="M246.819,195.658v4.511h.882v.728h-40.899c-1.999,0-3.619-1.336-3.619-2.983s1.62-2.983,3.619-2.983h40.899v.728h-.882Z" style="fill:#263238;"></path><path d="M246.819,195.658v4.511h.882v.728h-20.652c-1.998,0-3.619-1.336-3.619-2.983s1.62-2.983,3.619-2.983h20.652v.728h-.882Z" style="fill:#fff; isolation:isolate; opacity:.3;"></path><path d="M246.819,195.658v4.511h-19.77c-1.507-.008-2.726-1.013-2.736-2.255-.01-1.238,1.199-2.247,2.7-2.255,.012,0,.024,0,.035,0h19.77Z" style="fill:#fff; isolation:isolate; opacity:.7;"></path><path d="M241.294,189.692v4.511h.882v.728h-40.899c-1.999,0-3.619-1.336-3.619-2.983s1.62-2.983,3.619-2.983h40.899v.728h-.882Z" style="fill:#92E3A9;"></path><path d="M241.294,189.692v4.511h.882v.728h-20.564c-1.999,0-3.619-1.336-3.619-2.983s1.62-2.983,3.619-2.983h20.652v.728h-.971Z" style="fill:#fff; isolation:isolate; opacity:.3;"></path><path d="M241.294,189.692v4.511h-19.682c-1.52,.032-2.785-.957-2.824-2.211v-.03c-.021-1.238,1.179-2.255,2.68-2.272,.048,0,.096,0,.144,.001h19.682Z" style="fill:#fff; isolation:isolate; opacity:.7;"></path><path d="M241.834,183.726v4.511h.882v.728h-40.899c-1.998,0-3.619-1.336-3.619-2.983s1.62-2.983,3.619-2.983h40.899v.728h-.882Z" style="fill:#263238;"></path><path d="M241.834,183.726v4.511h.882v.728h-20.652c-1.998,0-3.619-1.336-3.619-2.983s1.62-2.983,3.619-2.983h20.652v.728h-.882Z" style="fill:#fff; isolation:isolate; opacity:.3;"></path><path d="M241.834,183.726v4.511h-19.77c-1.507-.008-2.726-1.013-2.736-2.255-.01-1.238,1.199-2.247,2.7-2.255,.012,0,.024,0,.035,0h19.77Z" style="fill:#fff; isolation:isolate; opacity:.7;"></path><path d="M244.763,177.76v4.511h.883v.728h-40.899c-1.999,0-3.619-1.336-3.619-2.983s1.62-2.983,3.619-2.983h40.899v.728h-.883Z" style="fill:#92E3A9;"></path><path d="M244.763,177.76v4.511h.883v.728h-20.564c-1.999,0-3.619-1.336-3.619-2.983s1.62-2.983,3.619-2.983h20.652v.728h-.971Z" style="fill:#fff; isolation:isolate; opacity:.3;"></path><path d="M244.763,177.76v4.511h-19.681c-1.52,.032-2.785-.958-2.824-2.211v-.03c-.021-1.237,1.179-2.255,2.68-2.271,.048,0,.096,0,.144,.002h19.681Z" style="fill:#fff; isolation:isolate; opacity:.7;"></path></g><g><g><polygon points="237.245 200.561 231.135 207.211 231.135 226.093 243.354 226.093 243.354 207.211 237.245 200.561" style="fill:#92E3A9;"></polygon><polygon points="237.245 200.561 231.135 207.211 231.135 226.093 243.354 226.093 243.354 207.211 237.245 200.561" style="opacity:.3;"></polygon></g><path d="M237.251,204.781h-.008c-.138-.005-.246-.121-.242-.258,.174-5.154,.172-10.386-.006-15.549-.004-.138,.104-.254,.241-.259,.131-.016,.253,.104,.259,.241,.178,5.175,.18,10.418,.006,15.583-.005,.135-.116,.242-.25,.242Z" style="fill:#263238;"></path></g></g></g><g id="freepik--Table--inject-72"><g><g><g><rect x="368.091" y="307.153" width="163.826" height="10.638" style="fill:#b97964;"></rect><rect x="376.779" y="316.373" width="146.45" height="24.822" style="fill:#b97964;"></rect><path d="M508.226,338.933l-13.563,1.767h2.38c-.476,0,15.234,106.105,15.234,106.105h7.141l-11.193-107.872Z" style="fill:#b97964;"></path><polygon points="497.402 344.109 497.014 340.862 508.426 340.856 508.763 344.102 497.402 344.109" style="opacity:.3;"></polygon><path d="M405.021,340.7l-13.563-1.767-11.193,107.872h7.141s15.711-106.105,15.234-106.105h2.38Z" style="fill:#b97964;"></path><path d="M368.091,318.166h157.205c2.083,0,4.267,.188,6.345,0,.091-.008,.185,0,.277,0,.483,0,.483-.75,0-.75h-157.205c-2.083,0-4.267-.188-6.345,0-.091,.008-.185,0-.277,0-.483,0-.483,.75,0,.75h0Z" style="fill:#a24e3f;"></path><path d="M376.779,341.57h140.468c1.878,0,3.864,.186,5.735,0,.081-.008,.166,0,.247,0,.483,0,.483-.75,0-.75h-140.468c-1.878,0-3.864-.186-5.735,0-.081,.008-.166,0-.247,0-.483,0-.483,.75,0,.75h0Z" style="fill:#a24e3f;"></path><path d="M462.644,331.103h-27.087c-2.475,0-4.481-2.006-4.481-4.481h36.049c0,2.475-2.006,4.481-4.481,4.481Z" style="fill:#e0e0e0;"></path><path d="M519.67,339.184h-139.655v-19.867h139.655v19.867Zm-139.155-.5h138.655v-18.867h-138.655v18.867Z" style="fill:#a24e3f;"></path><polygon points="390.908 344.236 391.182 340.99 402.64 340.99 402.257 344.236 390.908 344.236" style="opacity:.3;"></polygon></g><g><g><polygon points="508.763 319.073 502.653 325.722 502.653 344.604 514.872 344.604 514.872 325.722 508.763 319.073" style="fill:#92E3A9;"></polygon><polygon points="508.763 319.073 502.653 325.722 502.653 344.604 514.872 344.604 514.872 325.722 508.763 319.073" style="opacity:.3;"></polygon></g><path d="M508.769,323.292h-.009c-.138-.005-.246-.12-.241-.259,.174-5.158,.172-10.39-.006-15.548-.005-.138,.104-.254,.241-.259,.142,.016,.254,.104,.259,.241,.178,5.17,.18,10.413,.006,15.583-.005,.135-.115,.241-.25,.241Z" style="fill:#263238;"></path></g></g><g><g><path d="M504.704,307.249h-97.657c-11.745,.007-21.272-9.508-21.279-21.253v-.013h0c0-11.752,9.527-21.279,21.279-21.279h97.657c11.752,0,21.279,9.527,21.279,21.279h0c0,11.745-9.521,21.266-21.266,21.266h-.013Z" style="fill:#92E3A9;"></path><path d="M526.51,285.983c.005,5.635-2.233,11.039-6.218,15.022h0c-3.986,3.998-9.403,6.24-15.048,6.231h-97.67c-11.749,.291-21.509-8.997-21.8-20.746-.291-11.749,8.997-21.509,20.746-21.8,.351-.009,.703-.009,1.054,0h97.657c5.508-.011,10.803,2.126,14.761,5.957,.462,.445,.898,.916,1.306,1.411,1.517,1.738,2.735,3.716,3.605,5.852,.392,.955,.715,1.938,.967,2.939,.131,.536,.235,1.084,.326,1.646,.205,1.151,.31,2.318,.314,3.488Z" style="fill:#fff; isolation:isolate; opacity:.4;"></path><path d="M525.983,285.983c.005,5.635-2.233,11.039-6.218,15.022h0c-7.707,1.097-20.509-.274-26.125-19.294,0,0,7.694,13.572,20.077,14.304,8.791,.523,11.299-8.321,12.018-13.52,.183,1.153,.266,2.32,.248,3.488Z" style="isolation:isolate; opacity:.2;"></path><path d="M425.687,271.17l11.757,28.738c-34.747,2.273-38.535-22.533-38.522-33.623,2.557-1.048,5.296-1.585,8.06-1.581h32.853c2.445,1.978,4.399,4.495,5.708,7.354-4.938,3.004-13.167,1.763-19.855-.888Z" style="isolation:isolate; opacity:.2;"></path><path d="M445.608,272.058s-13.533-3.096-15.283-18.85c-1.75-15.754,14.669-47.366,14.539-58.6-.131-11.234-17.138-22.586-28.268-8.987-11.129,13.598,1.385,27.432,1.385,27.432,0,0-15.257,53.179-7.341,70.461,7.916,17.282,26.87,16.342,26.87,16.342,0,0,16.89-10.084,8.099-27.798Z" style="fill:#92E3A9;"></path><path d="M445.608,272.058s-13.533-3.096-15.283-18.85c-1.75-15.754,14.669-47.366,14.539-58.6-.131-11.234-17.138-22.586-28.268-8.987-11.129,13.598,1.385,27.432,1.385,27.432,0,0-15.257,53.179-7.341,70.461,7.916,17.282,26.87,16.342,26.87,16.342,0,0,16.89-10.084,8.099-27.798Z" style="fill:#fff; isolation:isolate; opacity:.4;"></path><path d="M438.136,196.164c0,.941-.522,1.698-1.15,1.698s-1.149-.758-1.149-1.698,.523-1.698,1.149-1.698,1.15,.758,1.15,1.698Z" style="fill:#263238;"></path><path d="M430.899,201.167h0c-.209,2.325-3.279,7.746-9.745,9.144-4.363,.954-18.288-.523-22.207-6.832-.426-.666-.78-1.376-1.058-2.116-2.09-5.944,8.504-2.756,8.504-2.756,1.191-.606,2.343-1.287,3.449-2.038,.911-.591,1.73-1.312,2.43-2.142,1.497-1.948,3.733-3.191,6.179-3.435,6.897,0,12.057,7.759,12.41,9.575,.051,.196,.064,.4,.039,.601Z" style="fill:#92E3A9;"></path><path d="M413.33,202.682c-2.112-1.642-4.431-3-6.897-4.036,1.191-.606,2.343-1.287,3.449-2.038,1.941,1.459,3.19,3.659,3.449,6.074Z" style="isolation:isolate; opacity:.2;"></path><path d="M430.899,201.18c-.209,2.325-3.279,7.746-9.745,9.144-4.363,.954-18.288-.522-22.207-6.832-.426-.666-.78-1.376-1.058-2.116,2.932-.538,5.955,.177,8.334,1.972,4.951,3.383,21.332,6.14,24.676-2.168Z" style="isolation:isolate; opacity:.2;"></path></g><g><g><polygon points="451.298 276.926 445.189 283.576 445.189 302.457 457.408 302.457 457.408 283.576 451.298 276.926" style="fill:#92E3A9;"></polygon><polygon points="451.298 276.926 445.189 283.576 445.189 302.457 457.408 302.457 457.408 283.576 451.298 276.926" style="opacity:.3;"></polygon></g><path d="M451.305,281.146h-.009c-.138-.005-.246-.12-.241-.259,.174-5.145,.172-10.376-.006-15.549-.005-.139,.104-.254,.241-.259,.138,.008,.254,.104,.259,.241,.178,5.185,.18,10.428,.006,15.584-.005,.135-.115,.241-.25,.241Z" style="fill:#263238;"></path></g></g></g></g><g id="freepik--Speech_Bubble--inject-72"><g><g><path d="M599.349,64.868c10.607-6.6,24.557-3.352,31.157,7.255,6.6,10.607,3.352,24.557-7.255,31.158-8.189,5.095-18.357,4.3-25.611-1.199l-6.668,1.305,1.335-7.053c-.069-.106-.147-.201-.214-.308-6.6-10.607-3.352-24.557,7.255-31.157Z" style="fill:#92E3A9;"></path><path d="M587.399,74.044c-.027,0-.056-.004-.084-.014-.13-.046-.198-.189-.151-.319,2.476-6.983,8.74-12.575,15.958-14.246,.142-.032,.27,.053,.3,.188,.031,.134-.053,.269-.187,.3-7.057,1.633-13.18,7.1-15.601,13.926-.036,.103-.133,.167-.235,.167Z" style="fill:#92E3A9;"></path><path d="M585.692,80.532h0c-.138,0-.249-.113-.249-.25,.003-1.151,.25-2.316,.714-3.369,.056-.127,.207-.182,.329-.128,.127,.056,.184,.204,.128,.33-.436,.991-.668,2.087-.671,3.169,0,.138-.112,.25-.25,.25Z" style="fill:#92E3A9;"></path></g><polygon points="609.763 92.983 600.214 84.27 603.255 80.938 609.658 86.78 620.297 76.392 623.448 79.619 609.763 92.983" style="fill:#fff;"></polygon></g></g><g id="freepik--Character_2--inject-72"><g><g><polygon points="584.071 412.829 587.532 438.226 595.809 438.644 598.489 414.161 584.071 412.829" style="fill:#263238;"></polygon><path d="M602.857,450.017h-18.514s-.404-.778,.058-2.848c.07-.323,.162-.677,.282-1.063,.006-.02,.01-.039,.017-.058,.173-.573,.372-1.278,.583-2.038,.848-3.099,1.846-7.149,1.846-7.149,0,0,3.08-6.594,6.684-4.948,3.162,1.444,2.412,5.577,2.412,5.577,0,0,.31,2.427,2.707,4.567,1.482,1.322,2.956,2.346,3.665,3.99,.133,.308,.237,.634,.312,.989,.009,.043,.017,.087,.024,.132,.147,.793,.139,1.722-.075,2.848Z" style="fill:#263238;"></path><path d="M584.401,447.17c-.461,2.07-.058,2.848-.058,2.848h18.514c.214-1.126,.222-2.055,.075-2.848h-18.531Z" style="fill:#fff; opacity:.3;"></path><path d="M595.478,438.529c-1.041-.811-2.407-.706-3.344,.207-.252,.246-.639-.14-.386-.386,1.169-1.14,2.838-1.204,4.117-.208,.277,.216-.112,.6-.386,.386h0Z" style="fill:#92E3A9;"></path><path d="M596.001,440.258c-1.041-.811-2.408-.706-3.344,.207-.252,.246-.639-.14-.386-.386,1.169-1.14,2.838-1.204,4.117-.208,.277,.216-.112,.6-.386,.386h0Z" style="fill:#92E3A9;"></path><path d="M596.526,441.848c-1.041-.811-2.407-.706-3.344,.207-.252,.246-.639-.14-.386-.386,1.169-1.14,2.838-1.204,4.117-.208,.277,.216-.112,.6-.386,.387h0Z" style="fill:#92E3A9;"></path></g><g><polygon points="549.322 411.239 545.86 436.637 537.583 437.055 534.903 412.571 549.322 411.239" style="fill:#263238;"></polygon><path d="M530.536,448.428h18.514s.404-.778-.058-2.848c-.07-.323-.162-.677-.282-1.064-.006-.019-.01-.039-.017-.058-.173-.573-.372-1.278-.583-2.038-.848-3.099-1.846-7.149-1.846-7.149,0,0-3.08-6.594-6.684-4.948-3.162,1.444-2.412,5.577-2.412,5.577,0,0-.31,2.427-2.707,4.567-1.482,1.322-2.956,2.346-3.665,3.99-.132,.307-.237,.634-.312,.989-.008,.043-.017,.088-.023,.132-.147,.793-.139,1.722,.075,2.848Z" style="fill:#263238;"></path><path d="M548.992,445.58c.462,2.07,.058,2.848,.058,2.848h-18.514c-.214-1.126-.222-2.055-.075-2.848h18.531Z" style="fill:#fff; opacity:.3;"></path><path d="M537.914,436.94c1.041-.811,2.407-.706,3.344,.207,.252,.246,.639-.14,.386-.386-1.169-1.14-2.838-1.204-4.117-.207-.277,.216,.112,.6,.386,.386h0Z" style="fill:#92E3A9;"></path><path d="M537.391,438.669c1.041-.811,2.408-.706,3.344,.207,.252,.246,.638-.14,.386-.386-1.169-1.14-2.838-1.204-4.117-.207-.277,.216,.112,.6,.386,.386h0Z" style="fill:#92E3A9;"></path><path d="M536.867,440.258c1.041-.811,2.407-.706,3.344,.207,.252,.246,.638-.14,.386-.386-1.169-1.14-2.838-1.204-4.117-.208-.277,.216,.112,.6,.386,.386h0Z" style="fill:#92E3A9;"></path></g><g><path d="M602.201,246.102l-38.502,2.295-23.554-4.068s-1.599,26.899-3.611,90.815c-.439,13.938-4.122,96.795-4.122,96.795l20.705,2.11s10.284-85.936,11.856-93.441c.945-4.514,4.475-38.404,7.28-54.605,1.359,13.511,2.481,46.119,3.508,54.891,0,0,5.14,70.523,5.868,90.528l19.3-.958c2.381-27.465,3.189-127.507,3.189-127.507l-.003-.002c1.336-20.953-1.913-56.854-1.913-56.854Z" style="fill:#263238;"></path><path d="M602.201,246.102l-38.502,2.295-23.554-4.068s-1.599,26.899-3.611,90.815c-.439,13.938-4.122,96.795-4.122,96.795l20.705,2.11s10.284-85.936,11.856-93.441c.945-4.514,4.475-38.404,7.28-54.605,1.359,13.511,2.481,46.119,3.508,54.891,0,0,5.14,70.523,5.868,90.528l19.3-.958c2.381-27.465,3.189-127.507,3.189-127.507l-.003-.002c1.336-20.953-1.913-56.854-1.913-56.854Z" style="fill:#fff; opacity:.4;"></path></g><g><g><g><path d="M555.552,155.585c3.576-.222,12.767-2.104,25.978-.697,6.876,.732,12.492,.572,19.546,3.811l3.488,84.675c.053,6.997-1.071,7.977-1.071,7.977,0,0,.202,3.973,.217,4.096-23.218,8.973-49.958,8.387-64.747-.829,.349,.058,0-2.87,0-2.87,0,0-2.229-2.26-1.466-9.451,2.547-23.993,8.129-62.666,12.088-84.244,.105-.533,5.425-2.435,5.967-2.469Z" style="fill:#92E3A9;"></path><path d="M555.552,155.585c3.576-.222,12.767-2.104,25.978-.697,6.876,.732,12.492,.572,19.546,3.811l3.488,84.675c.053,6.997-1.071,7.977-1.071,7.977,0,0,.202,3.973,.217,4.096-23.218,8.973-49.958,8.387-64.747-.829,.349,.058,0-2.87,0-2.87,0,0-2.229-2.26-1.466-9.451,2.547-23.993,8.129-62.666,12.088-84.244,.105-.533,5.425-2.435,5.967-2.469Z" style="opacity:.3;"></path></g><path d="M598.537,163.334c-.916,0-4.644,8.647-7.025,19.132-2.381,10.486-8.513,30.219-8.513,30.219l-36.581,5.771-2.101,17.439s48.82,4.471,54.499-1.645,4.13-7.293,6.19-18.166c1.837-9.696,2.812-34.044,2.523-40.508-.412-9.221-7.728-12.218-8.992-12.243Z" style="opacity:.3;"></path></g><g><path d="M530.01,218.456s-4.693,7.1-1.564,8.905c3.129,1.805,14.858,4.934,14.858,4.934v-13.295l-13.294-.544Z" style="fill:#fdad6a;"></path><g><path d="M600.766,158.56c-.916,0-5.987,9.41-8.369,19.896-2.381,10.485-7.327,35.476-7.327,35.476l-41.766,5.068v15.029s50.376,3.495,56.054-2.621c5.679-6.117,5.817-9.225,7.877-20.097,1.837-9.696,2.812-34.044,2.523-40.508-.412-9.221-7.728-12.218-8.992-12.243Z" style="fill:#92E3A9;"></path><path d="M600.766,158.56c-.916,0-5.987,9.41-8.369,19.896-2.381,10.485-7.327,35.476-7.327,35.476l-41.766,5.068v15.029s50.376,3.495,56.054-2.621c5.679-6.117,5.817-9.225,7.877-20.097,1.837-9.696,2.812-34.044,2.523-40.508-.412-9.221-7.728-12.218-8.992-12.243Z" style="opacity:.3;"></path></g><path d="M592.629,171.139c-.332-5.042,3.286-11.106,8.754-11.215-5.239,.85-8.327,6.281-8.754,11.215h0Z" style="opacity:.3;"></path></g><g><path d="M558.377,153.076s.665,2.031,.187,2.688c-.479,.657-1.064,.809-1.064,.809,0,0,1.024,1.522,.618,2.486,0,0,1.536,1.725,.619,2.892-.918,1.167-1.928,.507-2.247,0-.319-.507-1.702,3.076-3.457,2.299-1.755-.777-.053-2.857,.479-3.618l-1.702,.254s-2.499,5.581-4.361,5.834-6.957-.272-7.414-2.47c0,0,7.956-14.547,8.508-14.863,.406-.233,5.121-1.264,7.583-1.793,.916-.197,1.853,.197,2.327,.971,.785,1.281,1.731,3.133,1.029,3.669l-1.105,.843" style="fill:#fdad6a;"></path><path d="M539.437,165.461c-.431,.617-13.393,40.737-11.237,48.141,2.156,7.404,5.39,10.078,10.78,9.05s8.192-2.674,8.839-9.461c.647-6.787,5.222-44.45,2.062-46.412-1.517-.942-10.444-1.318-10.444-1.318Z" style="opacity:.3;"></path><g><path d="M537.337,163.886c-.431,.617-13.393,40.737-11.237,48.141,2.156,7.404,5.39,10.078,10.78,9.05,5.39-1.028,8.192-2.674,8.839-9.461,.647-6.787,6.14-44.535,4.487-45.21-1.653-.676-12.868-2.52-12.868-2.52Z" style="fill:#92E3A9;"></path><path d="M537.337,163.886c-.431,.617-13.393,40.737-11.237,48.141,2.156,7.404,5.39,10.078,10.78,9.05,5.39-1.028,8.192-2.674,8.839-9.461,.647-6.787,6.14-44.535,4.487-45.21-1.653-.676-12.868-2.52-12.868-2.52Z" style="opacity:.3;"></path></g></g></g><g><path d="M580.295,145.098c-.007-10.063,.592-12.99,.967-14.223l-14.849,16.019c.583,3.889,2.234,6.875-2.288,7.794,0,0,3.55,7.902,5.665,7.378,1.574-.39,12.214-6.674,12.214-6.674l-.6-2.152c-.738-2.649-1.108-5.392-1.11-8.141Z" style="fill:#fdad6a;"></path><g style="opacity:.2;"><path d="M574.836,146.106c-1.392,2.718-4.562,4.947-7.652,5.788-.024-.288-.029-.71-.065-.993-.055-.446-.159-1.115-.248-1.576-.114-.565-.176-1.21-.35-1.781-.084-.223-.326-.24-.41-.463l-.173-.458,8.613-5.543c.902,.366,1.405,2.821,.285,5.026Z"></path></g><path d="M581.81,119.836c-.267-10.665-11.364-17.778-21.236-12.733-10.019,5.12-10.104,20.994-7.001,30.328,3.447,10.371,16.963,14.096,24.314,5.208,4.887-5.909,4.189-12.138,3.922-22.803h0Z" style="fill:#fdad6a;"></path><path d="M566.853,127.131c.17,1.077-.265,2.033-.97,2.138s-1.416-.684-1.585-1.76c-.17-1.076,.265-2.034,.97-2.138,.706-.104,1.416,.684,1.586,1.76Z" style="fill:#263238;"></path><path d="M556.734,127.718c.17,1.077-.264,2.034-.97,2.138-.706,.104-1.416-.684-1.586-1.76-.17-1.076,.264-2.034,.97-2.138,.706-.104,1.416,.684,1.585,1.761Z" style="fill:#263238;"></path><path d="M560.084,125.555s-2.564,5.886-3.313,8.237c1.712,1.117,4.195,.086,4.195,.086l-.882-8.323Z" style="fill:#d7504d;"></path><path d="M568.065,120.698c-.139,.11-.333,.145-.512,.073-2.072-.831-3.542,.109-3.694,.21-.232,.16-.551,.103-.713-.126-.162-.23-.105-.547,.126-.707,.081-.057,2.034-1.373,4.664-.318,.263,.105,.39,.401,.285,.661-.034,.084-.088,.154-.155,.206Z" style="fill:#263238;"></path><path d="M552.939,123.143c-.086-.044-.162-.113-.213-.204-.14-.245-.057-.559,.186-.699,2.436-1.406,4.523-.337,4.623-.301,.25,.13,.35,.438,.223,.689-.126,.251-.43,.35-.679,.224-.085-.048-1.704-.851-3.659,.278-.153,.088-.333,.087-.48,.013Z" style="fill:#263238;"></path><path d="M580.349,105.723c-4.85-4.483-15.567-5.564-23.198,.326l-.003,.002c-1.997,1.073-4.147,2.392-5.385,3.351-3.109,2.408-6.669,4.234-10.442,5.341-.639,.188-1.399,.474-1.513,1.13-.116,.663,.523,1.2,1.113,1.525,3.584,1.973,8.173,1.902,11.738-.091-.041,.298-.075,.566-.102,.794-1.536,1.653-4.516,2.488-3.076,2.637,5.321,1.158,11.211-.866,14.697-5.05-.004,.705-.004,1.434,.274,2.082,.279,.648,.916,1.197,1.619,1.143,.568-.043,1.039-.455,1.402-.894,1.279-1.546,1.745-3.587,2.172-5.547,2.276,2.403,5.678,11.41,8.296,13.435,.221-.295,.411-.59,.584-.884,.093,.789,.136,1.261,.136,1.261l2.641,9.539c2.843-4.703,3.384-8.818,3.865-16.148,0,0-.054-9.548-4.819-13.951Z" style="fill:#263238;"></path><g><path d="M586.463,126.477c-.429,2.945-2.185,5.406-4.179,6.822-2.999,2.13-4.774-1.237-5.007-4.722-.21-3.136,.098-7.045,3.622-7.792,3.471-.735,6.055,2.324,5.565,5.691Z" style="fill:#fdad6a;"></path><path d="M579.033,128.156c-.133,0-.244-.105-.25-.239-.044-1,.177-2,.638-2.891,.311-.601,.87-1.397,1.771-1.774,.882-.372,1.905-.195,2.488,.432,.095,.101,.089,.259-.013,.354-.1,.095-.259,.089-.353-.013-.436-.468-1.248-.599-1.93-.312-.762,.32-1.247,1.016-1.521,1.543-.42,.813-.621,1.726-.581,2.639,.006,.138-.101,.255-.239,.261h-.011Z" style="opacity:.2;"></path></g><path d="M565.816,135.346c-.488,1.17-1.587,2.063-2.823,2.352-.197,.046-.314,.271-.262,.461,.056,.202,.263,.308,.461,.262,1.51-.354,2.754-1.454,3.347-2.876,.078-.187-.084-.412-.262-.461-.216-.059-.383,.074-.461,.262h0Z" style="fill:#263238;"></path><path d="M576.18,103.147c-.257-1.117-.708-2.205-1.312-3.178-.152-.244-.392-.44-.672-.517-.269-.074-.628-.041-.867,.113-.501,.323-.736,1.004-.404,1.539,.265,.426,.495,.871,.691,1.333l-.113-.269c.214,.511,.383,1.037,.507,1.577,.132,.574,.823,.967,1.384,.786,.6-.194,.927-.769,.786-1.384h0Z" style="fill:#263238;"></path><path d="M577.2,105.477c.002-.194,.06-.427,.038-.616,.005,.042-.039,.253-.012,.095,.008-.045,.015-.09,.023-.135,.019-.101,.04-.202,.065-.302,.049-.2,.109-.397,.179-.591,.016-.043,.032-.086,.049-.128,.065-.165,.028-.034-.021,.047,.052-.086,.087-.189,.133-.279,.088-.173,.185-.342,.291-.506,.056-.087,.114-.172,.175-.255,.021-.029,.121-.16,.015-.023-.113,.147,.015-.016,.041-.047,.125-.149,.257-.292,.397-.427,.074-.072,.15-.141,.228-.208,.043-.037,.089-.072,.132-.11,.106-.091-.228,.171-.037,.029,.244-.181,.433-.369,.517-.672,.074-.269,.041-.628-.113-.867-.301-.466-1.034-.779-1.539-.404-.848,.629-1.567,1.407-2.049,2.354s-.752,1.981-.761,3.046c-.005,.589,.521,1.152,1.125,1.125,.614-.027,1.12-.494,1.125-1.125h0Z" style="fill:#263238;"></path></g></g></g><g id="freepik--Character_1--inject-72"><g><g><g><rect x="122.153" y="137.9" width="49.993" height="84.165" transform="translate(247.153 389.854) rotate(-166.209)" style="fill:#a24e3f;"></rect><rect x="116.558" y="137.059" width="54.33" height="84.165" transform="translate(240.599 387.38) rotate(-166.209)" style="fill:#b97964;"></rect><rect x="105.809" y="156.528" width="75.829" height="45.227" transform="translate(351.961 82.265) rotate(103.791)" style="fill:#fff;"></rect></g><path d="M159.023,162.982l-21.379-5.248c-.234-.058-.503,.217-.6,.613l-8.869,36.133c-.097,.396,.014,.764,.248,.821l21.379,5.248c.235,.058,.503-.217,.6-.613l8.869-36.133c.097-.396-.014-.764-.248-.821Z" style="fill:#263238;"></path></g><g><path d="M75.573,190.497s-3.535,32.158,0,35.123,14.358-1.483,14.358-1.483l-9.636-33.641h-4.721Z" style="fill:#ffb5af;"></path><path d="M81.966,202.869h-9.34s-.654-12.295,2.065-16.192c2.719-3.897,7.276,16.192,7.276,16.192Z" style="fill:#263238;"></path><path d="M81.13,203.179s-3.974-9.345-3.869-9.186c.105,.16,3.38,22.272,5.848,22.568,2.468,.296,2.101-1.044,2.101-1.044,0,0-1.6-6.488-4.08-12.338Z" style="opacity:.2;"></path></g><g><path d="M108.585,146.712c-.123,.011-.245-.026-.342-.103-.19-.159-.219-.44-.064-.634,.933-1.106,2.337-1.701,3.781-1.604,.243,.03,.415,.252,.385,.495l-.002,.015c-.026,.244-.244,.42-.488,.394h-.01c-1.146-.087-2.263,.393-2.99,1.283-.066,.086-.163,.141-.27,.153Z" style="fill:#263238;"></path><path d="M110.545,152.377c.455,1.824,1.16,3.576,2.095,5.207-.857,.459-1.874,.511-2.774,.143l.679-5.35Z" style="fill:#f54948;"></path><path d="M110.018,150.984c-.094,.761,.235,1.433,.731,1.497,.496,.064,.975-.496,1.013-1.24,.039-.744-.223-1.423-.72-1.499-.497-.075-.919,.48-1.024,1.242Z" style="fill:#263238;"></path><path d="M91.162,164.701c.091,.08,.189,.15,.293,.211,1.426,1.09,3.054,1.888,4.789,2.348,5.071,1.174,8.533,.481,10.799-1.819h0c3.157-3.439,3.956-9.531,3.521-16.89-.079-2.927-.622-5.823-1.608-8.58v-.129c0-.023-.082-.223-.129-.317-1.264-3.157-4.036-5.462-7.371-6.127-1.427-.313-2.882-.475-4.343-.481-14.367-.153-16.938,23.651-5.951,31.786Z" style="fill:#ffb5af;"></path><path d="M91.722,165.153c1.438,1.027,3.066,1.758,4.789,2.148,5.071,1.174,8.533,.305,10.799-2.019-3.033,.751-6.228,.487-9.097-.751-2.054-.939-4.331-.458-6.491,.622Z" style="isolation:isolate; opacity:.2;"></path><path d="M89.999,177.859c-.88,4.085,4.402,5.751,4.402,5.751,8.651-3.697,10.247-8.298,10.247-8.298-7.207-3.756-5.118-14.402-5.118-14.402l-1.467,.728-10.306,2.007s2.864,5.493,3.24,6.737h0c1.948,6.573-.998,7.477-.998,7.477Z" style="fill:#ffb5af;"></path><path d="M108.956,139.876s.798,10.047-8.733,14.367c0,0-4.085,10.447-10.118,10.564-8.216,.211-15.435-11.479-12.595-23.37,3.686-15.388,27.067-16.668,31.445-1.561Z" style="fill:#263238;"></path><path d="M91.455,129.195s9.59-2.43,14.895,1.42c6.186,4.507,8.533,9.167,1.174,16.433,0,0-16.104-5.223-21.456-4.108-3.132,.634-6.206,1.525-9.191,2.664-1.092-10.67,9.226-18.593,14.578-16.409Z" style="fill:#263238;"></path><g><path d="M98.939,150.227c-.03,1.835,.662,3.607,1.926,4.937,1.695,1.738,3.744,.526,4.286-1.7,.495-2.004,.194-5.334-1.989-6.245-1.59-.626-3.385,.156-4.011,1.746-.158,.401-.23,.832-.212,1.263Z" style="fill:#ffb5af;"></path><path d="M103.201,154.497c-.047,0-.095-.013-.138-.042-1.034-.682-1.739-1.872-1.839-3.107-.041-.506,.026-.917,.206-1.256,.239-.453,.675-.734,1.143-.725,.138,.004,.247,.119,.243,.257-.004,.138-.091,.261-.257,.243-.248,.002-.538,.178-.688,.459-.133,.252-.182,.573-.149,.981,.088,1.085,.708,2.131,1.616,2.73,.115,.076,.147,.231,.071,.346-.048,.073-.127,.112-.208,.112Z" style="opacity:.3;"></path></g><path d="M80.164,141.379c0,2.008,1.087,3.636,2.427,3.636s2.427-1.628,2.427-3.636-1.087-3.636-2.427-3.636-2.427,1.628-2.427,3.636Z" style="fill:#92E3A9;"></path></g><path d="M110.821,149.773l1.892-.282s-1.114,1.312-1.892,.282Z" style="fill:#263238;"></path><path d="M118.698,176.873s-11.444-3.85-28.699,.845c-17.254,4.695-15.505,10.716-15.505,10.716,0,0,13.029,23.358,14.743,49.826l37.044-3.604s-2.711-18.264-1.638-22.018c3.469-12.141,.003-27.665-5.944-35.767Z" style="fill:#263238;"></path><g><path d="M100.142,423.697l8.514,1.633c8.152-26.975,16.824-57.438,20.658-85.385,.594-4.378,.568-14.438,1.017-18.312,.225-1.831,.449-3.603,.658-5.294,1.027-8.404,1.733-15.059,2.15-19.168,.305-3.005,.465-4.695,.465-4.695h-30.948l.289,5.763,.963,19.05,.096,2.171,.642,12.571,1.025,22.235c-5.05,18.379-6.074,69.674-5.529,69.429Z" style="fill:#ffb5af;"></path><g><path d="M123.478,445.746c-1.498-.888-3.198-1.561-5.015-1.987h0s-5.461-3.965-8.299-16.101l-7.1-1.299c-2.44-.397-4.952,.386-6.316,1.971-.189,.223-.337,.465-.441,.718-.321,1.292-.537,2.597-.648,3.909-.286,4.46-.223,8.93,.186,13.384l1.327-.002,.305-8.407c-.004-2.856,3.097,.458,3.985,3.504,.889,3.046,2.725,6.377,10.982,6.366,9.499,.019,13.501-.305,11.034-2.057Z" style="fill:#263238;"></path><path d="M108.81,423.305s1.608,5.549,4.228,11.688c1.079,3.163,2.949,6.139,5.509,8.766,0,0-6.17,.918-8.913-2.19-2.742-3.107-6.632-13.822-12.887-13.175l3.401-6.249c1.01-1.134,8.661,1.16,8.661,1.16Z" style="fill:#ffb5af;"></path></g></g><g><path d="M68.105,422.373l8.27,.248c7.203-27.759,16.354-64.802,22.741-93.344,.984-4.386,1.874-8.433,2.663-12.21-.018-.187,.063-.371,.115-.553,1.567-7.389,2.748-13.232,3.482-17.005l.873-4.517-26.775-1.311-.595,9.49-.928,13.931-.174,2.729-.609,9.491-1.581,25.455c-12.478,30.301-7.463,72.936-7.483,67.597Z" style="fill:#ffb5af;"></path><g><path d="M92.207,443.412c-1.498-.888-3.198-1.561-5.016-1.987h0s-5.461-3.965-8.299-16.101l-7.1-1.299c-2.44-.397-4.952,.386-6.316,1.971-.189,.223-.337,.465-.441,.718-.321,1.292-.537,2.597-.648,3.909-.286,4.461-.223,8.93,.186,13.384l1.327-.002,.305-8.407c-.004-2.855,3.097,.458,3.985,3.504,.889,3.046,2.726,6.377,10.982,6.366,9.499,.019,13.501-.305,11.034-2.057Z" style="fill:#263238;"></path><path d="M76.376,416.56s2.771,9.96,5.391,16.099c1.078,3.163,2.948,6.139,5.509,8.766,0,0-6.17,.918-8.913-2.19-2.742-3.107-6.632-13.822-12.887-13.175l2.63-5.539c1.01-1.134,8.27-3.961,8.27-3.961Z" style="fill:#ffb5af;"></path></g></g><g><path d="M127.712,237.052h0l-2.237-8.403-36.93,2.769,.034,7.994h0c-14.766,26.151-11.198,55.965-11.198,55.965l-3.459,37.391s1.591,4.871,26.44,6.491c21.844,1.432,32.5,.183,32.5,.183,7.747-45.378-.232-93.292-5.15-102.389Z" style="fill:#92E3A9;"></path><path d="M127.712,237.052h0l-2.237-8.403-36.93,2.769,.034,7.994h0c-14.766,26.151-11.198,55.965-11.198,55.965l-3.459,37.391s1.591,4.871,26.44,6.491c21.844,1.432,32.5,.183,32.5,.183,7.747-45.378-.232-93.292-5.15-102.389Z" style="fill:#fff; isolation:isolate; opacity:.4;"></path><path d="M89.106,285.477c.674,.225,13.588,14.9,13.588,14.9l-2.331,30.782-1.643-30.633-9.614-15.049Z" style="opacity:.2;"></path></g><g><path d="M162.49,195.807c.319,.48-15.142,22.445-21.685,21.807-6.542-.638-25.264-23.947-27.499-29.145-2.441-5.678-1.499-11.755,3.857-11.675,5.357,.08,9.392,6.317,13.632,13.019,4.24,6.702,10.169,12.911,10.169,12.911l16.757-11.412,4.769,4.497Z" style="fill:#ffb5af;"></path><path d="M162.108,196.6s2.497-1.75,5.91-4.625c3.414-2.875,4.865-6.789,4.865-6.789l.127-3.639s-4.08,3.884-4.577,4.267-5.149,.073-4.778-.309,5.023-5.677,3.877-6.155c-1.145-.478-5.624,2.849-8.072,4.989-2.449,2.14-2.833,8.146-2.833,8.146l5.48,4.115Z" style="fill:#ffb5af;"></path><path d="M130.011,187.398c-.156,.934-11.559,12.25-11.559,12.25,0,0-12.051-15.465-5.812-22.074,6.24-6.609,17.371,9.824,17.371,9.824Z" style="fill:#263238;"></path></g><path d="M123.81,202.869c.124,.146-1.611,1.447-4.891-1.669-1.019-.968-5.544-9.76-5.544-9.76l5.544,7.389,1.027-.673,3.864,4.713Z" style="opacity:.2;"></path><path d="M72.797,193.991s5.991-1.236,9.168-6.039c3.177-4.803,3.263-8.738,3.263-8.738,0,0-4.543,1.217-8.176,5.045s-4.256,9.733-4.256,9.733Z" style="opacity:.2;"></path><path d="M39.854,179.856c.953-1.65,2.841-1.669,4.52-1.712,6.006-.154,12.479-1.906,16.026-6.755,2.402-3.283,3.104-7.502,3.296-11.565,.192-4.063-.051-8.177,.757-12.163,.808-3.987,2.887-7.971,6.494-9.853,3.42-1.784,7.844-1.28,10.764,1.204,.368,.313,.625,.739,.787,1.195l.074,.211c.246,.695,.203,1.45-.07,2.134-3.927,9.818,1.372,16.834,1.34,24.053-.03,6.706-.188,13.852-3.928,19.419-2.418,3.599-6.198,6.197-10.344,7.462-4.147,1.265-8.636,1.238-12.852,.227-.462-.111-1.005-.321-1.081-.79-.058-.358,.197-.683,.436-.956,1.197-1.366,2.393-2.733,3.589-4.099-5.096,1.094-10.512,.649-15.362-1.26-1.899-.748-3.813-1.801-4.597-3.803-.373-.955-.362-2.062,.151-2.95Z" style="fill:#263238;"></path></g></g></svg>
